<svg width="135" height="24" viewBox="0 0 135 24" fill="none" xmlns="http://www.w3.org/2000/svg">
<g opacity="0.2">
<path d="M0 2.51855L4.77161 1.18518V19.2593H0V2.51855ZM19.4535 19.2593H15.1223V12.6667C15.1223 11.037 15.1958 9.11111 13.0669 9.11111C11.3785 9.11111 10.571 10.2963 10.571 11.9259V19.1852H6.2398V6.66668L10.4241 5.48151V7.85184C11.2316 6.37036 13.0669 5.55557 14.6085 5.55557C18.0587 5.55557 19.3801 7.55556 19.3801 10.7407L19.4535 19.2593ZM23.5644 19.2593L19.1599 5.92594H23.6378L26.0604 14.8148L28.5563 5.92594H32.9608L28.5563 19.2593H23.5644ZM41.6966 10.7407C41.4763 9.55556 40.522 8.51853 39.2006 8.51853C37.2186 8.51853 36.2643 10.3704 36.3377 12.2222L41.6966 10.7407ZM39.5677 16.7407C41.4763 16.7407 43.3116 15.8519 44.4127 14.3704L45.5873 17.5556C43.9723 18.8889 41.4763 19.6296 39.3475 19.6296C35.1631 19.6296 32.0799 17.1111 32.0799 12.5185C32.0799 8.44447 35.2365 5.48151 39.2006 5.48151C43.3116 5.48151 45.8809 8.22222 45.8809 12.4444L36.7047 15.037C37.1452 16.2963 38.3197 16.7407 39.5677 16.7407ZM54.2496 11.0371C55.2773 11.1852 56.3785 11.4074 57.186 11.9259C58.2137 12.5926 58.8744 13.7037 58.8744 14.8889C58.8744 18.4444 55.571 19.6296 52.4144 19.6296C49.6248 19.6296 46.5416 18.6666 46.0277 15.6296L49.7716 14.5926C49.9918 16 50.9462 16.8889 52.3409 16.8889C53.2953 16.8889 54.5432 16.4444 54.5432 15.4074C54.5432 14.3704 53.2219 14.1481 52.4144 13.9259C51.8271 13.7778 51.3132 13.7037 50.7259 13.5556C48.5237 13.1111 46.3214 12.4445 46.3214 9.55558C46.3214 6.29632 49.7716 5.48151 52.3409 5.48151C54.7635 5.48151 57.9935 6.29631 58.4339 8.8889L54.6166 9.92595C54.3964 8.74077 53.5889 8.29631 52.2675 8.29631C51.5334 8.29631 50.6525 8.51851 50.6525 9.33332C50.6525 10.2222 52.1941 10.5926 52.9282 10.7407C53.3687 10.8889 53.8091 10.963 54.2496 11.0371ZM63.9396 8.74074V14.8148C63.9396 15.4074 64.1599 15.8518 64.6737 16C65.3344 16.2222 66.509 16.0741 67.0962 15.9259L66.2153 19.2593C65.6281 19.3333 64.8205 19.4074 64.3067 19.4074C60.6362 19.4074 59.6819 18.2963 59.6819 14.6667V3.4074L64.013 2.22223V5.92594H67.1697L66.3622 8.74074H63.9396ZM67.6101 6.66668L71.9413 5.48151V19.2593H67.6101V6.66668ZM82.292 12.6667C82.292 11.037 82.3654 9.11111 80.2365 9.11111C78.5481 9.11111 77.7406 10.2963 77.7406 11.9259V19.1852H73.4095V6.66668L77.5938 5.48151V7.85184C78.4013 6.37036 80.2365 5.55557 81.7781 5.55557C85.2284 5.55557 86.5498 7.55556 86.5498 10.7407V19.2593H82.2186L82.292 12.6667ZM94.478 8.8889C92.5693 8.8889 91.982 10.5926 91.982 12.2222C91.982 13.7778 92.7161 15.3333 94.478 15.3333C96.3132 15.3333 97.1207 13.9259 97.1207 12.2222C97.0473 10.5926 96.3866 8.8889 94.478 8.8889ZM94.2578 24C91.6884 24 88.9723 23.3333 88.0913 20.4444L91.982 19.3333C92.2757 20.5185 93.3034 21.1852 94.478 21.1852C96.2398 21.1852 96.9739 19.7037 96.9739 18.0741V16.7407C96.1664 18.0741 94.845 18.8148 93.3768 18.8148C89.3393 18.8148 87.5775 15.9259 87.5775 12.1482C87.5775 8.59262 89.6329 5.62962 93.3768 5.62962C94.9184 5.62962 96.1664 6.3704 96.9739 7.70373V6.74073L101.158 5.55557V17.7778C101.158 21.9259 98.075 24 94.2578 24ZM103.14 17.4815H104.535V19.2593H103.14V17.4815ZM109.674 18.6667C110.922 18.6667 111.876 17.5555 112.023 16.1481L113.051 16.4445C112.684 18.2963 111.509 19.5556 109.674 19.5556C107.178 19.5556 105.71 17.4074 105.71 14.8889C105.71 12.3704 107.104 10.2963 109.674 10.2222C111.362 10.2222 112.684 11.1852 112.977 12.963L111.949 13.2593C111.656 12 110.848 11.1852 109.674 11.1852C107.765 11.1852 106.811 13.1111 106.811 14.8889C106.737 16.7407 107.765 18.6667 109.674 18.6667ZM118.042 11.1852C116.134 11.1852 115.179 13.1111 115.179 14.8889C115.179 16.7407 116.134 18.5926 118.042 18.5926C119.951 18.5926 120.905 16.6667 120.905 14.8889C120.905 13.037 119.951 11.1852 118.042 11.1852ZM118.042 19.5556C115.546 19.5556 114.078 17.4074 114.078 14.8889C114.078 12.3704 115.473 10.2222 118.042 10.2222C120.612 10.2222 122.007 12.3704 122.007 14.8889C122.007 17.4074 120.538 19.5556 118.042 19.5556ZM133.972 19.2593V13.3333C133.972 11.9259 133.458 11.1111 131.99 11.1111C130.228 11.1111 129.715 12.7407 129.715 14.2963V19.2593H128.687V13.3333C128.687 12.1482 128.246 11.1852 126.925 11.1852C125.09 11.1852 124.429 12.7407 124.429 14.4444V19.3333H123.401V10.7407L124.356 10.4444V12.1482C124.943 10.8889 125.971 10.2963 127.145 10.2963C128.246 10.2963 129.201 10.8889 129.568 12C130.082 10.8889 131.109 10.2963 132.21 10.2963C134.119 10.2963 135 11.4074 135 13.3333V19.2593H133.972Z" fill="black"/>
<path fill-rule="evenodd" clip-rule="evenodd" d="M67.6104 1.18517L72.0149 0V3.62964L67.6104 4.88887V1.18517Z" fill="#FFA500"/>
</g>
</svg>
